# xmcd CD database file
#
# Track frame offsets:
#	150
#	22872
#	43350
#	67652
#	87502
#	121950
#	146252
#	165065
#	187177
#	208540
#
# Disc length: 3172 seconds
#
# Revision: 3
# Processed by: cddbd v1.5.2PL0 Copyright (c) Steve Scherf et al.
# Submitted via: CDex 1.51
#
DISCID=7d0c620a
DTITLE=大事MANブラザーズバンド - これも大事
DYEAR=1991
DGENRE=ロック
TTITLE0=Birthday Time
TTITLE1=青春の弱点
TTITLE2=クレアによせて
TTITLE3=この恋は終わらない
TTITLE4=愛しい人と逢える時
TTITLE5=それが大事
TTITLE6=これが最後のLove
TTITLE7=Autumn Avenueを君と
TTITLE8=本来･婚礼･一生問題
TTITLE9=For My Parents
EXTD=YEAR: 1991
EXTT0=
EXTT1=
EXTT2=
EXTT3=
EXTT4=
EXTT5=
EXTT6=
EXTT7=
EXTT8=
EXTT9=
PLAYORDER=
